<?xml version="1.0" encoding="utf-8"?>
<!-- Generator: Adobe Illustrator 22.0.0, SVG Export Plug-In . SVG Version: 6.00 Build 0)  -->
<svg version="1.1" id="Capa_1" xmlns:sketch="http://www.bohemiancoding.com/sketch/ns"
	 xmlns="http://www.w3.org/2000/svg" xmlns:xlink="http://www.w3.org/1999/xlink" x="0px" y="0px" viewBox="0 0 60 60"
	 style="enable-background:new 0 0 60 60;" xml:space="preserve">
<style type="text/css">
	.st0{fill:url(#SVGID_1_);}
	.st1{fill:#FFFFFF;}
</style>
<linearGradient id="SVGID_1_" gradientUnits="userSpaceOnUse" x1="-581.2087" y1="189.5767" x2="-546.7913" y2="140.4233" gradientTransform="matrix(1 0 0 1 594 -135)">
	<stop  offset="0" style="stop-color:#FFB900"/>
	<stop  offset="1" style="stop-color:#9100EB"/>
</linearGradient>
<circle class="st0" cx="30" cy="30" r="30"/>
<path class="st1" d="M21.8,24.2h-9.1v-1.2h0c0,11.1,0,18.1,0,18.1c0,5,5,5,5,5h23.5c0,0,5,0,5-5V24.2l0,0v-1.2h-9.8
	c-1.6-2.1-4.1-3.5-6.9-3.5s-5.3,1.4-6.9,3.5h-9.8c0-1.7,0-3.5,0-5.4c0-3.2,2-4.3,3.5-4.7v6.7h1.2v-6.9l0,0c0.2,0,0.4,0,0.4,0h23.5
	c0,0,5,0,5,5v6.5h-9.1c0.6,1.2,1,2.6,1,4c0,4.8-3.9,8.7-8.7,8.7s-8.7-3.9-8.7-8.7C20.8,26.8,21.1,25.4,21.8,24.2L21.8,24.2z
	 M40.1,15c-1.1,0-2,0.9-2,2v1.8c0,1.1,0.9,2,2,2h1.8c1.1,0,2-0.9,2-2V17c0-1.1-0.9-2-2-2H40.1z M20.8,12.7v6.9h1.2v-6.9H20.8z
	 M18.5,12.7v6.9h1.2v-6.9H18.5z M29.4,35.2c3.8,0,6.9-3.1,6.9-6.9s-3.1-6.9-6.9-6.9s-6.9,3.1-6.9,6.9S25.6,35.2,29.4,35.2z
	 M29.4,32.9c2.5,0,4.6-2.1,4.6-4.6s-2.1-4.6-4.6-4.6s-4.6,2.1-4.6,4.6S26.9,32.9,29.4,32.9z"/>
</svg>
