<?xml version="1.0" encoding="utf-8"?>
<!-- Generator: Adobe Illustrator 22.0.0, SVG Export Plug-In . SVG Version: 6.00 Build 0)  -->
<svg version="1.1" id="Capa_1" xmlns="http://www.w3.org/2000/svg" xmlns:xlink="http://www.w3.org/1999/xlink" x="0px" y="0px"
	 viewBox="0 0 236.3 60" style="enable-background:new 0 0 236.3 60;" xml:space="preserve">
<style type="text/css">
	.st0{fill:#FFFFFF;}
</style>
<rect x="1.5" y="0.7" class="st0" width="48.4" height="10.5"/>
<path class="st0" d="M39.4,50.5v-45h10.5v54.1h-1.4C43.5,59.6,39.4,55.5,39.4,50.5z"/>
<rect x="32.5" y="27.8" transform="matrix(-3.676189e-11 1 -1 -3.676189e-11 92.057 -25.9885)" class="st0" width="53.1" height="10.5"/>
<rect x="53.8" y="0.7" class="st0" width="48.4" height="10.5"/>
<rect x="59" y="21.7" class="st0" width="43.2" height="10.5"/>
<g id="Fusen_3_">
	<path class="st0" d="M115.8,59.3V35.2h16.9v4.5h-12.1v5.1h8.9v4.5h-8.9v10H115.8z"/>
	<path class="st0" d="M140.7,35.2v14c0,1.8,0.5,3.2,1.6,4c1.1,0.9,2.4,1.3,4,1.3s2.9-0.4,4-1.3c1.1-0.9,1.6-2.2,1.6-4v-14h4.8v15.3
		c0,2.5-1,4.6-3,6.3c-2,1.7-4.5,2.6-7.5,2.6c-3,0-5.5-0.9-7.5-2.6c-2-1.7-3-3.8-3-6.3V35.2H140.7z"/>
	<path class="st0" d="M175.1,36c1.2,0.5,2.4,1.3,3.5,2.4l-3.2,3.2c-1.1-1.3-2.6-1.9-4.5-1.9s-3.2,0.5-3.7,1.4
		c-0.5,0.9-0.5,1.7,0,2.3c0.5,0.6,1.8,1.1,3.7,1.4c2,0.2,3.9,0.9,5.5,2c1.7,1.1,2.5,2.9,2.5,5.4c0,1.9-0.9,3.6-2.7,5
		c-1.8,1.4-3.8,2.1-6.2,2.1c-2.2,0-4.1-0.3-5.6-1c-1.5-0.6-2.8-1.5-3.9-2.6l3.2-3.2c1.1,1.3,2.9,2,5.5,2.2c2.1,0,3.5-0.5,4-1.4
		c0.5-0.9,0.5-1.8,0-2.7s-1.9-1.5-4-1.7c-1.9-0.2-3.7-0.8-5.3-1.8c-1.6-1-2.4-2.6-2.4-5c0-2.1,0.9-3.8,2.7-5.1
		c1.8-1.3,3.7-1.9,5.6-1.9C172.1,35.2,173.8,35.5,175.1,36z"/>
	<path class="st0" d="M183.1,59.3V35.2l17.7,0v4.5h-12.9v5.1h9.7v4.5h-9.7v5.5h12.9v4.5H183.1z"/>
	<path class="st0" d="M205.6,59.3V35.2h1.6l15.1,15.1V35.2h4.8v24.1h-1.8l-14.9-14.9v14.9H205.6z"/>
</g>
<g id="Tecno_3_">
	<path class="st0" d="M133.1,0.6v4.5h-8v19.6h-4.8V5.1h-8V0.6H133.1z"/>
	<path class="st0" d="M136.7,24.7V0.6l17.7,0v4.5h-12.9v5.1h9.7v4.5h-9.7v5.5h12.9v4.5H136.7z"/>
	<path class="st0" d="M161.5,21.2c-2.3-2.3-3.5-5.2-3.5-8.6c0-3.4,1.2-6.2,3.5-8.5c2.3-2.3,5.2-3.5,8.6-3.5c3.4,0,6.4,1.1,8.9,3.2
		l-3.2,3.5c-1.6-1.3-3.5-1.9-5.6-1.9c-2.2,0-3.9,0.7-5.2,2c-1.3,1.3-2,3.1-2,5.1c0,2.2,0.7,4,2,5.3c1.3,1.3,3.1,2,5.2,2
		c2.2,0,4-0.6,5.6-1.9l3.2,3.5c-2.5,2.1-5.4,3.2-8.9,3.2C166.7,24.6,163.8,23.5,161.5,21.2z"/>
	<path class="st0" d="M184.1,24.7V0.6h1.6l15.1,15.1V0.6h4.8v24.1h-1.8L188.9,9.7v14.9H184.1z"/>
	<path class="st0" d="M212.9,21.2c-2.3-2.3-3.5-5.2-3.5-8.6c0-3.4,1.2-6.3,3.5-8.6c2.3-2.3,5.2-3.5,8.6-3.5c3.4,0,6.3,1.2,8.6,3.5
		c2.3,2.3,3.5,5.2,3.5,8.6c0,3.4-1.2,6.3-3.5,8.6c-2.3,2.3-5.2,3.5-8.6,3.5C218,24.7,215.2,23.5,212.9,21.2z M221.5,20.2
		c2.1,0,3.9-0.7,5.2-2.2s2-3.2,2-5.4c0-2.1-0.7-3.9-2-5.4s-3.1-2.2-5.2-2.2c-2.1,0-3.9,0.7-5.2,2.2c-1.3,1.4-2,3.2-2,5.4
		c0,2.1,0.7,3.9,2,5.4C217.6,19.4,219.3,20.2,221.5,20.2z"/>
</g>
</svg>
